PathFileType	4	(X/Y/Z)	Patient4_TMGait_0pt5_01_right_07.trc.trc
DataRate	CameraRate	NumFrames	NumMarkers	Units	OrigDataRate	OrigDataStartFrame	OrigNumFrames
72.164948453608	72.164948453608	6	33	mm	72.164948453608	18	       141
Frame#	Time	L.ASIS			Sacral			L.Shoulder			Chest			R.Shoulder			Neck			R.ASIS			R.Thigh.Superior			R.Thigh.Lateral			R.Thigh.Inferior			R.Patella			L.Thigh.Superior			L.Thigh.Lateral			L.Thigh.Inferior			L.Patella			L.Shank.Superior			L.Shank.Lateral			L.Shank.Inferior			R.Shank.Superior			R.Shank.Lateral			R.Shank.Inferior			R.Heel			R.Midfoot.Superior			R.Midfoot.Lateral			R.Toe			L.Heel			L.Midfoot.Lateral			L.Midfoot.Superior			L.Toe			L.Elbow			L.Wrist			R.Elbow			R.Wrist			
		X1	Y1	Z1	X2	Y2	Z2	X3	Y3	Z3	X4	Y4	Z4	X5	Y5	Z5	X6	Y6	Z6	X7	Y7	Z7	X8	Y8	Z8	X9	Y9	Z9	X10	Y10	Z10	X11	Y11	Z11	X12	Y12	Z12	X13	Y13	Z13	X14	Y14	Z14	X15	Y15	Z15	X16	Y16	Z16	X17	Y17	Z17	X18	Y18	Z18	X19	Y19	Z19	X20	Y20	Z20	X21	Y21	Z21	X22	Y22	Z22	X23	Y23	Z23	X24	Y24	Z24	X25	Y25	Z25	X26	Y26	Z26	X27	Y27	Z27	X28	Y28	Z28	X29	Y29	Z29	X30	Y30	Z30	X31	Y31	Z31	X32	Y32	Z32	X33	Y33	Z33	

18	8.935571428571	689.702875020361	960.997837966924	300.837615043836	460.384137111750	1002.124463465006	430.928689673206	658.061499092427	1435.430794603512	272.980276048005	732.371376179282	1365.880573301642	448.692963662019	621.288974005942	1438.927534456280	607.865355048835	630.077498313342	1496.196232197523	420.557350380773	671.946401724370	944.976938731318	576.002810856662	745.330700190691	766.280458049236	551.784461016259	694.852948226057	646.677396273272	619.852774425091	784.443531573154	605.437896118855	542.584264955217	815.329640270489	521.219102615014	558.836368538958	705.176974302516	736.881499879558	334.071470460030	602.555498521373	634.437027350927	265.477507537497	662.701203106966	546.417864561524	336.935583484425	649.937650072628	478.010741574094	348.189152622219	619.833097503199	409.550640237890	339.197273628364	525.840136060197	302.059802990402	282.884857277421	557.754822451320	189.763274225524	361.964011812126	798.056990690007	434.642178271449	567.534310196569	743.095605828505	322.221995733930	631.047562546621	810.738061812110	234.605680775628	579.322104143209	712.483372265079	49.903329219867	549.675247825247	876.044546198683	118.570643170950	590.920112108588	796.084390949282	45.118546615946	624.510108438576	1000.076966717410	78.153555002858	619.398232830403	414.562213217342	39.124292579756	395.807402963969	494.210160288442	34.772427390960	321.123933321877	576.364953500980	94.859807831757	352.848839582502	705.847205412186	40.075932521489	334.851045967328	725.342891137818	1096.386563722095	139.356269199714	970.479874120248	1021.047343856068	171.132377728551	465.962955978548	1126.802505902916	694.339640136613	432.101964064901	868.301066743003	706.104210751256	
19	8.949428571429	689.567686939589	960.204799713175	302.095650590745	460.649314540860	1001.683895920803	432.648053601371	658.145607636569	1434.512984116716	274.013880655230	732.828888559745	1365.075712285645	449.595824706656	622.217526816909	1438.378546236865	608.925808230860	630.376757720492	1495.463234996052	421.663286786560	672.343958389196	943.981674660559	577.339586413555	743.902376244784	763.789546266114	553.511109732216	691.479449766096	644.354265856912	620.792575488604	780.754100837157	602.691529399496	543.519061199394	810.687535113222	519.335727143794	558.617165214204	703.092772323218	735.680511333849	334.859409647648	599.211095861216	634.266280230447	266.231484768793	658.614200433052	545.595258500332	337.301013223040	645.297616277372	477.238822111220	348.358221663554	614.733546953783	409.117324285192	339.285112936205	519.721841294543	302.313335052855	283.015463877944	551.386457244792	189.632302973777	361.820034911798	794.760284177270	432.730475863779	567.460907942999	741.575665383320	319.546714809347	631.085015364414	810.162882857396	232.873188731754	578.877076960005	714.012420310896	47.696184840167	549.612851971608	877.374118338273	116.920586502042	589.621617386063	798.060528061149	43.362455238412	623.892893130259	1001.776162435234	77.130449998990	617.169801827000	407.579633514451	39.233576970306	395.759061540748	487.216694878391	34.781898095426	321.127783695000	569.417331663394	94.848548701169	352.744669706030	698.837215420963	39.971750641963	334.815304437584	724.546075308086	1094.796599985969	141.476940738226	968.829144930019	1016.159560844028	173.018729138158	468.902247265700	1125.284922389830	696.236157197846	437.989428522586	866.352468678721	707.894899387309	
20	8.963285714286	689.586045398836	959.387262876525	303.455172765232	461.078267864389	1001.117795001282	434.655604079157	657.998442504373	1433.593495078370	275.251747056139	733.231070610249	1364.316147794597	450.655797714031	623.058876309575	1437.726434386508	610.189270868767	630.516302450834	1494.680365608714	422.999754059320	673.114270310349	942.942426044584	578.734918759613	743.248798917061	761.449042865303	555.071282706921	688.937215227516	642.118034514306	621.530365383347	777.857277790441	600.125667187135	544.229982365188	806.634283909130	517.272404636503	558.229919934403	701.231060991433	734.429682553357	335.683565372541	596.012091809377	634.075232199119	267.131571368359	654.720731259374	544.737226537647	337.759919985869	640.846659844426	476.405085989693	348.652810847793	609.784698453965	408.660014481619	339.478004546046	513.688052256447	302.605495788206	283.244325219259	545.053141692483	189.502436762946	361.730747431913	791.427731487645	430.449510915346	567.197023970713	739.073514359576	317.027219456412	630.903392286696	807.696311271109	230.766864515834	578.172752625548	712.009987532654	46.197711202742	549.441317635612	875.715714624213	114.670418911131	588.062329460117	796.449516883781	41.847953368136	623.173293563999	1000.098092047938	74.553760081511	614.686135550243	400.594639108690	39.378783920074	395.706422124652	480.228660535189	34.818331807854	321.136973117800	562.470503326842	94.854231366366	352.657776905483	691.826098619944	39.865439960797	334.779192991544	723.278589355758	1093.099321032211	143.782293684403	966.465774571325	1010.203576309135	174.799703486765	472.471269017394	1123.329155154272	698.542381728482	445.498916492447	863.862442826402	710.030592415685	
21	8.977142857143	689.752062009342	958.556521072269	304.916491433185	461.652361488942	1000.444748514037	436.944409289825	657.634060618181	1432.674135277905	276.693065005345	733.593856518578	1363.606134168880	451.874845664985	623.835980735667	1436.988773488163	611.663461557276	630.533676631951	1493.859468312136	424.565397142186	674.234188366309	941.868734557320	580.186345878509	743.330203274500	759.246627852203	556.447197237515	687.196182603855	639.996020017069	622.077804801268	775.733437114491	597.759835609990	544.718709405815	803.181694001581	515.071867328653	557.674770040560	699.625773532880	733.158607079027	336.529086899207	593.001287619136	633.870799638948	268.183513661073	651.089350556299	543.855737661039	338.310220006401	636.668417525922	475.507813935125	349.073173954917	605.049301188317	408.176405938199	339.785183916133	507.789785156594	302.955326465768	283.581636905524	538.778150219134	189.384520011949	361.696866376624	788.167033145052	427.869379815982	566.759294043283	735.846553867321	314.626196299491	630.556380290207	803.709736553588	228.301254195258	577.245023096838	707.069968701741	45.167681010980	549.219890979730	871.567041241374	111.959903853884	586.334550219140	791.866812995954	40.508058467307	622.428900531455	995.658800736667	70.798478515679	612.064567465695	393.614593150787	39.599726811885	395.645711994490	473.254274713537	34.900407801849	321.150837598689	555.539180894742	94.885258690797	352.585644568582	684.821970388250	39.745449767475	334.740793686197	721.545225923167	1091.293836556925	146.265791598732	963.349223323086	1003.233114459399	176.452066089876	476.561561028414	1121.040645968761	701.234892325925	454.520319658022	860.980879355529	712.508030473238	
22	8.991000000000	690.052113344334	957.736529536032	306.483006891648	462.348955967603	999.702790511690	439.499445494000	657.079680105779	1431.771186933403	278.334422895782	733.938877425471	1362.958644712650	453.252374183561	624.583220467200	1436.199044384347	613.353012922141	630.480230603101	1493.028182971313	426.355568267307	675.660960069587	940.789977360204	581.699041904613	744.054264513020	757.183345110619	557.635274789681	686.194408812767	638.032200440331	622.468046777855	774.319399973891	595.622997683505	544.994406919943	800.312835322620	512.800982314661	556.965775790397	698.303911483172	731.911037053970	337.392067320269	590.229256026995	633.667072416161	269.393726653379	647.797800655401	542.973034169222	338.953312712702	632.859821550213	474.552328636568	349.614993110147	600.598133639253	407.669080210016	340.212581699381	502.083409244871	303.391448971638	284.034852679440	532.591704540122	189.297306853439	361.714018212999	785.078163529683	425.107030639808	566.182343399168	732.192803579088	312.349157431556	630.112625684002	798.646232845165	225.570811765756	576.149723156373	699.937654873170	44.426394686810	549.001396034018	865.532633714024	109.011342292555	584.548102423808	785.067519802098	39.328847481912	621.730697713262	989.177545105852	66.353876528160	609.448430612295	386.648252465283	39.948973383508	395.574021943358	466.302536897688	35.051456562605	321.168195368060	548.644031251255	94.952976342585	352.520852624073	677.833779384155	39.601989279578	334.697766838099	719.358755396645	1089.394089148549	148.925536982149	959.423579506960	995.306443070909	177.959208756942	481.078810509380	1118.537151702612	704.281018440622	464.943276203550	857.884205436838	715.323012140246	
23	9.004857142857	690.465123931765	956.964765243120	308.160558045677	463.142500380643	998.948493921043	442.298084436697	656.375258254075	1430.917295335174	280.168849970105	734.290097709784	1362.396891897592	454.784864484669	625.340076106742	1435.407265002135	615.256905094948	630.415610317280	1492.230313548088	428.360847381047	677.335366443266	939.756435204233	583.286166001712	745.291843164826	755.285198616739	558.644826316538	685.852623158117	636.287002616180	622.750823037213	773.523170226707	593.756506032795	545.075449799532	797.993653436642	510.549475222010	556.138078873046	697.282548434379	730.743155090760	338.280956911513	587.752214875062	633.485190856561	270.767751874454	644.931204321142	542.121160643799	339.691653433029	629.528346392442	473.551674370836	350.265527249458	596.508405036492	407.146877504774	340.758939154620	496.629383719120	303.951745059903	284.607071840344	526.531333097353	189.267505401300	361.771262423321	782.246494065870	422.312573174356	565.518083612590	728.411497256238	310.240235707818	629.648814173906	792.963385145151	222.728600421604	574.958729652052	691.405699001124	43.859522212589	548.822810318637	858.246019373392	106.079181941381	582.818010384107	776.842640494772	38.327154474080	621.132990303478	981.387833918202	61.732915223139	606.993623275858	379.706755846213	40.490689699489	395.489316859759	459.383342382452	35.298156563597	321.187211879632	541.812761535233	95.070352709765	352.450088744550	670.871295790391	39.428375204093	334.647807695448	716.740726568644	1087.433401485212	151.763316888417	954.616285430189	986.488149729996	179.313131391379	485.947193307526	1115.943564177880	707.643118045305	476.664815129964	854.769726082979	718.471170064246	
